<svg width="65" height="69" viewBox="0 0 65 69" fill="none" xmlns="http://www.w3.org/2000/svg">
<g clip-path="url(#clip0_141_97)">
<path d="M62.7368 25.0285C57.5101 10.7546 43.1453 -3.22857 26.9458 0.780631C26.8808 0.795171 26.8196 0.816978 26.7618 0.83515C13.5074 4.59719 4.55691 18.7076 1.40999 31.5239C-0.107587 37.7139 -0.442837 44.4385 1.51091 50.5777C3.81793 57.8291 9.09162 63.0669 16.0343 65.9347C28.1245 70.9291 43.1201 69.9804 53.5555 61.6675C64.3446 53.0748 67.4013 37.7612 62.7368 25.0285ZM54.3523 56.5133C46.3209 65.0843 33.6396 67.2905 22.5877 64.6189C15.6702 62.947 9.27905 59.4612 5.9339 52.8893C3.32408 47.757 2.93839 41.665 3.80352 36.042C5.80052 23.0511 14.4338 7.61773 27.8072 3.93565C40.8201 0.715201 52.5283 11.2017 57.9967 22.1751C63.4649 33.1488 63 47.2846 54.3487 56.5133H54.3523Z" fill="#FF628B"/>
<path d="M24.5049 37.2197C30.2365 37.5068 32.6768 23.4037 28.5097 23.4183C26.5308 23.4256 26.4732 25.9773 25.5142 27.1659C24.6852 26.1808 24.3717 24.8904 23.4272 23.9817C20.2767 20.9539 18.4887 25.3811 18.5356 28.0346C18.5932 31.2659 20.5902 37.0234 24.5049 37.2197Z" fill="#FF628B"/>
<path d="M48.6638 23.4183C46.6848 23.4256 46.6271 25.9773 45.6683 27.1659C44.8391 26.1808 44.5255 24.8904 43.5812 23.9817C40.4305 20.9539 38.6427 25.3811 38.6896 28.0346C38.7472 31.2659 40.7443 37.0234 44.6589 37.2197C50.3904 37.5068 52.8308 23.4037 48.6638 23.4183Z" fill="#FF628B"/>
<path d="M44.749 48.5929C40.8739 51.7043 36.9303 55.4591 31.6819 55.677C29.4469 55.7716 27.1507 55.2373 25.4457 53.7035C23.6146 52.057 23.0018 49.8432 21.8411 47.7715C21.2499 46.7172 19.444 47.1426 19.516 48.4074C19.8441 54.3795 24.851 58.9631 30.5933 59.3339C37.107 59.7517 42.8962 55.539 47.5354 51.4025C49.4675 49.6796 46.6883 47.0372 44.749 48.5929Z" fill="#FF628B"/>
</g>
<defs>
<clipPath id="clip0_141_97">
<rect width="65" height="69" fill="white"/>
</clipPath>
</defs>
</svg>
